<svg class="rich-terminal" viewBox="0 0 994 635.5999999999999" xmlns="http://www.w3.org/2000/svg">
    <!-- Generated with Rich https://www.textualize.io -->
    <style>

    @font-face {
        font-family: "Fira Code";
        src: local("FiraCode-Regular"),
                url("https://cdnjs.cloudflare.com/ajax/libs/firacode/6.2.0/woff2/FiraCode-Regular.woff2") format("woff2"),
                url("https://cdnjs.cloudflare.com/ajax/libs/firacode/6.2.0/woff/FiraCode-Regular.woff") format("woff");
        font-style: normal;
        font-weight: 400;
    }
    @font-face {
        font-family: "Fira Code";
        src: local("FiraCode-Bold"),
                url("https://cdnjs.cloudflare.com/ajax/libs/firacode/6.2.0/woff2/FiraCode-Bold.woff2") format("woff2"),
                url("https://cdnjs.cloudflare.com/ajax/libs/firacode/6.2.0/woff/FiraCode-Bold.woff") format("woff");
        font-style: bold;
        font-weight: 700;
    }

    .terminal-1474062533-matrix {
        font-family: Fira Code, monospace;
        font-size: 20px;
        line-height: 24.4px;
        font-variant-east-asian: full-width;
    }

    .terminal-1474062533-title {
        font-size: 18px;
        font-weight: bold;
        font-family: arial;
    }

    .terminal-1474062533-r1 { fill: #c5c8c6 }
.terminal-1474062533-r2 { fill: #d6b35a;font-weight: bold }
.terminal-1474062533-r3 { fill: #d5d2c9 }
.terminal-1474062533-r4 { fill: #8a8577 }
.terminal-1474062533-r5 { fill: #3a4150 }
.terminal-1474062533-r6 { fill: #7f9cc4 }
.terminal-1474062533-r7 { fill: #d57367;font-weight: bold }
.terminal-1474062533-r8 { fill: #757472 }
.terminal-1474062533-r9 { fill: #28292d }
.terminal-1474062533-r10 { fill: #d6b35a }
.terminal-1474062533-r11 { fill: #a1a2a4;font-weight: bold }
.terminal-1474062533-r12 { fill: #8a8577;font-weight: bold }
.terminal-1474062533-r13 { fill: #232733 }
.terminal-1474062533-r14 { fill: #55472a }
    </style>

    <defs>
    <clipPath id="terminal-1474062533-clip-terminal">
      <rect x="0" y="0" width="975.0" height="584.5999999999999" />
    </clipPath>
    <clipPath id="terminal-1474062533-line-0">
    <rect x="0" y="1.5" width="976" height="24.65"/>
            </clipPath>
<clipPath id="terminal-1474062533-line-1">
    <rect x="0" y="25.9" width="976" height="24.65"/>
            </clipPath>
<clipPath id="terminal-1474062533-line-2">
    <rect x="0" y="50.3" width="976" height="24.65"/>
            </clipPath>
<clipPath id="terminal-1474062533-line-3">
    <rect x="0" y="74.7" width="976" height="24.65"/>
            </clipPath>
<clipPath id="terminal-1474062533-line-4">
    <rect x="0" y="99.1" width="976" height="24.65"/>
            </clipPath>
<clipPath id="terminal-1474062533-line-5">
    <rect x="0" y="123.5" width="976" height="24.65"/>
            </clipPath>
<clipPath id="terminal-1474062533-line-6">
    <rect x="0" y="147.9" width="976" height="24.65"/>
            </clipPath>
<clipPath id="terminal-1474062533-line-7">
    <rect x="0" y="172.3" width="976" height="24.65"/>
            </clipPath>
<clipPath id="terminal-1474062533-line-8">
    <rect x="0" y="196.7" width="976" height="24.65"/>
            </clipPath>
<clipPath id="terminal-1474062533-line-9">
    <rect x="0" y="221.1" width="976" height="24.65"/>
            </clipPath>
<clipPath id="terminal-1474062533-line-10">
    <rect x="0" y="245.5" width="976" height="24.65"/>
            </clipPath>
<clipPath id="terminal-1474062533-line-11">
    <rect x="0" y="269.9" width="976" height="24.65"/>
            </clipPath>
<clipPath id="terminal-1474062533-line-12">
    <rect x="0" y="294.3" width="976" height="24.65"/>
            </clipPath>
<clipPath id="terminal-1474062533-line-13">
    <rect x="0" y="318.7" width="976" height="24.65"/>
            </clipPath>
<clipPath id="terminal-1474062533-line-14">
    <rect x="0" y="343.1" width="976" height="24.65"/>
            </clipPath>
<clipPath id="terminal-1474062533-line-15">
    <rect x="0" y="367.5" width="976" height="24.65"/>
            </clipPath>
<clipPath id="terminal-1474062533-line-16">
    <rect x="0" y="391.9" width="976" height="24.65"/>
            </clipPath>
<clipPath id="terminal-1474062533-line-17">
    <rect x="0" y="416.3" width="976" height="24.65"/>
            </clipPath>
<clipPath id="terminal-1474062533-line-18">
    <rect x="0" y="440.7" width="976" height="24.65"/>
            </clipPath>
<clipPath id="terminal-1474062533-line-19">
    <rect x="0" y="465.1" width="976" height="24.65"/>
            </clipPath>
<clipPath id="terminal-1474062533-line-20">
    <rect x="0" y="489.5" width="976" height="24.65"/>
            </clipPath>
<clipPath id="terminal-1474062533-line-21">
    <rect x="0" y="513.9" width="976" height="24.65"/>
            </clipPath>
<clipPath id="terminal-1474062533-line-22">
    <rect x="0" y="538.3" width="976" height="24.65"/>
            </clipPath>
    </defs>

    <rect fill="#292929" stroke="rgba(255,255,255,0.35)" stroke-width="1" x="1" y="1" width="992" height="633.6" rx="8"/><text class="terminal-1474062533-title" fill="#c5c8c6" text-anchor="middle" x="496" y="27">bookkit</text>
            <g transform="translate(26,22)">
            <circle cx="0" cy="0" r="7" fill="#ff5f57"/>
            <circle cx="22" cy="0" r="7" fill="#febc2e"/>
            <circle cx="44" cy="0" r="7" fill="#28c840"/>
            </g>
        
    <g transform="translate(9, 41)" clip-path="url(#terminal-1474062533-clip-terminal)">
    <rect fill="#232733" x="0" y="1.5" width="24.4" height="24.65" shape-rendering="crispEdges"/><rect fill="#232733" x="24.4" y="1.5" width="280.6" height="24.65" shape-rendering="crispEdges"/><rect fill="#232733" x="305" y="1.5" width="24.4" height="24.65" shape-rendering="crispEdges"/><rect fill="#232733" x="329.4" y="1.5" width="97.6" height="24.65" shape-rendering="crispEdges"/><rect fill="#232733" x="427" y="1.5" width="24.4" height="24.65" shape-rendering="crispEdges"/><rect fill="#232733" x="451.4" y="1.5" width="12.2" height="24.65" shape-rendering="crispEdges"/><rect fill="#232733" x="463.6" y="1.5" width="24.4" height="24.65" shape-rendering="crispEdges"/><rect fill="#232733" x="488" y="1.5" width="73.2" height="24.65" shape-rendering="crispEdges"/><rect fill="#232733" x="561.2" y="1.5" width="24.4" height="24.65" shape-rendering="crispEdges"/><rect fill="#232733" x="585.6" y="1.5" width="12.2" height="24.65" shape-rendering="crispEdges"/><rect fill="#232733" x="597.8" y="1.5" width="183" height="24.65" shape-rendering="crispEdges"/><rect fill="#232733" x="780.8" y="1.5" width="12.2" height="24.65" shape-rendering="crispEdges"/><rect fill="#232733" x="793" y="1.5" width="122" height="24.65" shape-rendering="crispEdges"/><rect fill="#232733" x="915" y="1.5" width="12.2" height="24.65" shape-rendering="crispEdges"/><rect fill="#232733" x="927.2" y="1.5" width="24.4" height="24.65" shape-rendering="crispEdges"/><rect fill="#232733" x="951.6" y="1.5" width="24.4" height="24.65" shape-rendering="crispEdges"/><rect fill="#15171c" x="0" y="25.9" width="24.4" height="24.65" shape-rendering="crispEdges"/><rect fill="#15171c" x="24.4" y="25.9" width="12.2" height="24.65" shape-rendering="crispEdges"/><rect fill="#15171c" x="36.6" y="25.9" width="12.2" height="24.65" shape-rendering="crispEdges"/><rect fill="#15171c" x="48.8" y="25.9" width="146.4" height="24.65" shape-rendering="crispEdges"/><rect fill="#15171c" x="195.2" y="25.9" width="12.2" height="24.65" shape-rendering="crispEdges"/><rect fill="#15171c" x="207.4" y="25.9" width="12.2" height="24.65" shape-rendering="crispEdges"/><rect fill="#15171c" x="219.6" y="25.9" width="122" height="24.65" shape-rendering="crispEdges"/><rect fill="#15171c" x="341.6" y="25.9" width="12.2" height="24.65" shape-rendering="crispEdges"/><rect fill="#15171c" x="353.8" y="25.9" width="12.2" height="24.65" shape-rendering="crispEdges"/><rect fill="#15171c" x="366" y="25.9" width="122" height="24.65" shape-rendering="crispEdges"/><rect fill="#15171c" x="488" y="25.9" width="12.2" height="24.65" shape-rendering="crispEdges"/><rect fill="#15171c" x="500.2" y="25.9" width="12.2" height="24.65" shape-rendering="crispEdges"/><rect fill="#15171c" x="512.4" y="25.9" width="134.2" height="24.65" shape-rendering="crispEdges"/><rect fill="#15171c" x="646.6" y="25.9" width="12.2" height="24.65" shape-rendering="crispEdges"/><rect fill="#15171c" x="658.8" y="25.9" width="12.2" height="24.65" shape-rendering="crispEdges"/><rect fill="#15171c" x="671" y="25.9" width="146.4" height="24.65" shape-rendering="crispEdges"/><rect fill="#15171c" x="817.4" y="25.9" width="12.2" height="24.65" shape-rendering="crispEdges"/><rect fill="#15171c" x="829.6" y="25.9" width="12.2" height="24.65" shape-rendering="crispEdges"/><rect fill="#15171c" x="841.8" y="25.9" width="122" height="24.65" shape-rendering="crispEdges"/><rect fill="#15171c" x="963.8" y="25.9" width="12.2" height="24.65" shape-rendering="crispEdges"/><rect fill="#15171c" x="0" y="50.3" width="829.6" height="24.65" shape-rendering="crispEdges"/><rect fill="#15171c" x="829.6" y="50.3" width="12.2" height="24.65" shape-rendering="crispEdges"/><rect fill="#15171c" x="841.8" y="50.3" width="122" height="24.65" shape-rendering="crispEdges"/><rect fill="#15171c" x="963.8" y="50.3" width="12.2" height="24.65" shape-rendering="crispEdges"/><rect fill="#15171c" x="0" y="74.7" width="61" height="24.65" shape-rendering="crispEdges"/><rect fill="#15171c" x="61" y="74.7" width="109.8" height="24.65" shape-rendering="crispEdges"/><rect fill="#15171c" x="170.8" y="74.7" width="122" height="24.65" shape-rendering="crispEdges"/><rect fill="#15171c" x="292.8" y="74.7" width="85.4" height="24.65" shape-rendering="crispEdges"/><rect fill="#15171c" x="378.2" y="74.7" width="85.4" height="24.65" shape-rendering="crispEdges"/><rect fill="#15171c" x="463.6" y="74.7" width="61" height="24.65" shape-rendering="crispEdges"/><rect fill="#15171c" x="524.6" y="74.7" width="73.2" height="24.65" shape-rendering="crispEdges"/><rect fill="#15171c" x="597.8" y="74.7" width="378.2" height="24.65" shape-rendering="crispEdges"/><rect fill="#15171c" x="0" y="99.1" width="976" height="24.65" shape-rendering="crispEdges"/><rect fill="#15171c" x="0" y="123.5" width="976" height="24.65" shape-rendering="crispEdges"/><rect fill="#15171c" x="0" y="147.9" width="976" height="24.65" shape-rendering="crispEdges"/><rect fill="#15171c" x="0" y="172.3" width="976" height="24.65" shape-rendering="crispEdges"/><rect fill="#15171c" x="0" y="196.7" width="976" height="24.65" shape-rendering="crispEdges"/><rect fill="#15171c" x="0" y="221.1" width="976" height="24.65" shape-rendering="crispEdges"/><rect fill="#15171c" x="0" y="245.5" width="976" height="24.65" shape-rendering="crispEdges"/><rect fill="#15171c" x="0" y="269.9" width="231.8" height="24.65" shape-rendering="crispEdges"/><rect fill="#15171c" x="231.8" y="269.9" width="744.2" height="24.65" shape-rendering="crispEdges"/><rect fill="#15171c" x="0" y="294.3" width="73.2" height="24.65" shape-rendering="crispEdges"/><rect fill="#15171c" x="73.2" y="294.3" width="73.2" height="24.65" shape-rendering="crispEdges"/><rect fill="#15171c" x="146.4" y="294.3" width="85.4" height="24.65" shape-rendering="crispEdges"/><rect fill="#15171c" x="231.8" y="294.3" width="134.2" height="24.65" shape-rendering="crispEdges"/><rect fill="#15171c" x="366" y="294.3" width="97.6" height="24.65" shape-rendering="crispEdges"/><rect fill="#15171c" x="463.6" y="294.3" width="122" height="24.65" shape-rendering="crispEdges"/><rect fill="#15171c" x="585.6" y="294.3" width="122" height="24.65" shape-rendering="crispEdges"/><rect fill="#15171c" x="707.6" y="294.3" width="268.4" height="24.65" shape-rendering="crispEdges"/><rect fill="#15171c" x="0" y="318.7" width="976" height="24.65" shape-rendering="crispEdges"/><rect fill="#15171c" x="0" y="343.1" width="976" height="24.65" shape-rendering="crispEdges"/><rect fill="#15171c" x="0" y="367.5" width="976" height="24.65" shape-rendering="crispEdges"/><rect fill="#15171c" x="0" y="391.9" width="976" height="24.65" shape-rendering="crispEdges"/><rect fill="#15171c" x="0" y="416.3" width="976" height="24.65" shape-rendering="crispEdges"/><rect fill="#15171c" x="0" y="440.7" width="976" height="24.65" shape-rendering="crispEdges"/><rect fill="#15171c" x="0" y="465.1" width="976" height="24.65" shape-rendering="crispEdges"/><rect fill="#15171c" x="0" y="489.5" width="976" height="24.65" shape-rendering="crispEdges"/><rect fill="#15171c" x="0" y="513.9" width="976" height="24.65" shape-rendering="crispEdges"/><rect fill="#232733" x="0" y="538.3" width="24.4" height="24.65" shape-rendering="crispEdges"/><rect fill="#232733" x="24.4" y="538.3" width="97.6" height="24.65" shape-rendering="crispEdges"/><rect fill="#232733" x="122" y="538.3" width="12.2" height="24.65" shape-rendering="crispEdges"/><rect fill="#232733" x="134.2" y="538.3" width="231.8" height="24.65" shape-rendering="crispEdges"/><rect fill="#232733" x="366" y="538.3" width="585.6" height="24.65" shape-rendering="crispEdges"/><rect fill="#232733" x="951.6" y="538.3" width="24.4" height="24.65" shape-rendering="crispEdges"/><rect fill="#55472a" x="0" y="562.7" width="12.2" height="24.65" shape-rendering="crispEdges"/><rect fill="#55472a" x="12.2" y="562.7" width="12.2" height="24.65" shape-rendering="crispEdges"/><rect fill="#55472a" x="24.4" y="562.7" width="12.2" height="24.65" shape-rendering="crispEdges"/><rect fill="#55472a" x="36.6" y="562.7" width="12.2" height="24.65" shape-rendering="crispEdges"/><rect fill="#55472a" x="48.8" y="562.7" width="12.2" height="24.65" shape-rendering="crispEdges"/><rect fill="#55472a" x="61" y="562.7" width="12.2" height="24.65" shape-rendering="crispEdges"/><rect fill="#55472a" x="73.2" y="562.7" width="12.2" height="24.65" shape-rendering="crispEdges"/><rect fill="#55472a" x="85.4" y="562.7" width="12.2" height="24.65" shape-rendering="crispEdges"/><rect fill="#55472a" x="97.6" y="562.7" width="12.2" height="24.65" shape-rendering="crispEdges"/><rect fill="#55472a" x="109.8" y="562.7" width="12.2" height="24.65" shape-rendering="crispEdges"/><rect fill="#55472a" x="122" y="562.7" width="12.2" height="24.65" shape-rendering="crispEdges"/><rect fill="#55472a" x="134.2" y="562.7" width="12.2" height="24.65" shape-rendering="crispEdges"/><rect fill="#55472a" x="146.4" y="562.7" width="12.2" height="24.65" shape-rendering="crispEdges"/><rect fill="#55472a" x="158.6" y="562.7" width="12.2" height="24.65" shape-rendering="crispEdges"/><rect fill="#55472a" x="170.8" y="562.7" width="12.2" height="24.65" shape-rendering="crispEdges"/><rect fill="#55472a" x="183" y="562.7" width="12.2" height="24.65" shape-rendering="crispEdges"/><rect fill="#55472a" x="195.2" y="562.7" width="12.2" height="24.65" shape-rendering="crispEdges"/><rect fill="#55472a" x="207.4" y="562.7" width="12.2" height="24.65" shape-rendering="crispEdges"/><rect fill="#55472a" x="219.6" y="562.7" width="12.2" height="24.65" shape-rendering="crispEdges"/><rect fill="#55472a" x="231.8" y="562.7" width="12.2" height="24.65" shape-rendering="crispEdges"/><rect fill="#55472a" x="244" y="562.7" width="12.2" height="24.65" shape-rendering="crispEdges"/><rect fill="#55472a" x="256.2" y="562.7" width="12.2" height="24.65" shape-rendering="crispEdges"/><rect fill="#55472a" x="268.4" y="562.7" width="12.2" height="24.65" shape-rendering="crispEdges"/><rect fill="#55472a" x="280.6" y="562.7" width="12.2" height="24.65" shape-rendering="crispEdges"/><rect fill="#55472a" x="292.8" y="562.7" width="12.2" height="24.65" shape-rendering="crispEdges"/><rect fill="#55472a" x="305" y="562.7" width="12.2" height="24.65" shape-rendering="crispEdges"/><rect fill="#55472a" x="317.2" y="562.7" width="12.2" height="24.65" shape-rendering="crispEdges"/><rect fill="#55472a" x="329.4" y="562.7" width="12.2" height="24.65" shape-rendering="crispEdges"/><rect fill="#55472a" x="341.6" y="562.7" width="12.2" height="24.65" shape-rendering="crispEdges"/><rect fill="#55472a" x="353.8" y="562.7" width="12.2" height="24.65" shape-rendering="crispEdges"/><rect fill="#55472a" x="366" y="562.7" width="12.2" height="24.65" shape-rendering="crispEdges"/><rect fill="#55472a" x="378.2" y="562.7" width="12.2" height="24.65" shape-rendering="crispEdges"/><rect fill="#00000a" x="390.4" y="562.7" width="12.2" height="24.65" shape-rendering="crispEdges"/><rect fill="#00000a" x="402.6" y="562.7" width="12.2" height="24.65" shape-rendering="crispEdges"/><rect fill="#00000a" x="414.8" y="562.7" width="12.2" height="24.65" shape-rendering="crispEdges"/><rect fill="#00000a" x="427" y="562.7" width="12.2" height="24.65" shape-rendering="crispEdges"/><rect fill="#00000a" x="439.2" y="562.7" width="12.2" height="24.65" shape-rendering="crispEdges"/><rect fill="#00000a" x="451.4" y="562.7" width="12.2" height="24.65" shape-rendering="crispEdges"/><rect fill="#00000a" x="463.6" y="562.7" width="12.2" height="24.65" shape-rendering="crispEdges"/><rect fill="#00000a" x="475.8" y="562.7" width="12.2" height="24.65" shape-rendering="crispEdges"/><rect fill="#00000a" x="488" y="562.7" width="12.2" height="24.65" shape-rendering="crispEdges"/><rect fill="#00000a" x="500.2" y="562.7" width="12.2" height="24.65" shape-rendering="crispEdges"/><rect fill="#00000a" x="512.4" y="562.7" width="12.2" height="24.65" shape-rendering="crispEdges"/><rect fill="#00000a" x="524.6" y="562.7" width="12.2" height="24.65" shape-rendering="crispEdges"/><rect fill="#00000a" x="536.8" y="562.7" width="12.2" height="24.65" shape-rendering="crispEdges"/><rect fill="#00000a" x="549" y="562.7" width="12.2" height="24.65" shape-rendering="crispEdges"/><rect fill="#00000a" x="561.2" y="562.7" width="12.2" height="24.65" shape-rendering="crispEdges"/><rect fill="#00000a" x="573.4" y="562.7" width="12.2" height="24.65" shape-rendering="crispEdges"/><rect fill="#00000a" x="585.6" y="562.7" width="12.2" height="24.65" shape-rendering="crispEdges"/><rect fill="#00000a" x="597.8" y="562.7" width="12.2" height="24.65" shape-rendering="crispEdges"/><rect fill="#00000a" x="610" y="562.7" width="12.2" height="24.65" shape-rendering="crispEdges"/><rect fill="#00000a" x="622.2" y="562.7" width="12.2" height="24.65" shape-rendering="crispEdges"/><rect fill="#00000a" x="634.4" y="562.7" width="12.2" height="24.65" shape-rendering="crispEdges"/><rect fill="#00000a" x="646.6" y="562.7" width="12.2" height="24.65" shape-rendering="crispEdges"/><rect fill="#00000a" x="658.8" y="562.7" width="12.2" height="24.65" shape-rendering="crispEdges"/><rect fill="#00000a" x="671" y="562.7" width="12.2" height="24.65" shape-rendering="crispEdges"/><rect fill="#00000a" x="683.2" y="562.7" width="12.2" height="24.65" shape-rendering="crispEdges"/><rect fill="#00000a" x="695.4" y="562.7" width="12.2" height="24.65" shape-rendering="crispEdges"/><rect fill="#00000a" x="707.6" y="562.7" width="12.2" height="24.65" shape-rendering="crispEdges"/><rect fill="#00000a" x="719.8" y="562.7" width="12.2" height="24.65" shape-rendering="crispEdges"/><rect fill="#00000a" x="732" y="562.7" width="12.2" height="24.65" shape-rendering="crispEdges"/><rect fill="#00000a" x="744.2" y="562.7" width="12.2" height="24.65" shape-rendering="crispEdges"/><rect fill="#00000a" x="756.4" y="562.7" width="12.2" height="24.65" shape-rendering="crispEdges"/><rect fill="#00000a" x="768.6" y="562.7" width="12.2" height="24.65" shape-rendering="crispEdges"/><rect fill="#00000a" x="780.8" y="562.7" width="12.2" height="24.65" shape-rendering="crispEdges"/><rect fill="#00000a" x="793" y="562.7" width="12.2" height="24.65" shape-rendering="crispEdges"/><rect fill="#00000a" x="805.2" y="562.7" width="12.2" height="24.65" shape-rendering="crispEdges"/><rect fill="#00000a" x="817.4" y="562.7" width="12.2" height="24.65" shape-rendering="crispEdges"/><rect fill="#00000a" x="829.6" y="562.7" width="12.2" height="24.65" shape-rendering="crispEdges"/><rect fill="#00000a" x="841.8" y="562.7" width="12.2" height="24.65" shape-rendering="crispEdges"/><rect fill="#00000a" x="854" y="562.7" width="12.2" height="24.65" shape-rendering="crispEdges"/><rect fill="#00000a" x="866.2" y="562.7" width="12.2" height="24.65" shape-rendering="crispEdges"/><rect fill="#00000a" x="878.4" y="562.7" width="12.2" height="24.65" shape-rendering="crispEdges"/><rect fill="#00000a" x="890.6" y="562.7" width="12.2" height="24.65" shape-rendering="crispEdges"/><rect fill="#00000a" x="902.8" y="562.7" width="12.2" height="24.65" shape-rendering="crispEdges"/><rect fill="#00000a" x="915" y="562.7" width="12.2" height="24.65" shape-rendering="crispEdges"/><rect fill="#00000a" x="927.2" y="562.7" width="12.2" height="24.65" shape-rendering="crispEdges"/><rect fill="#00000a" x="939.4" y="562.7" width="12.2" height="24.65" shape-rendering="crispEdges"/><rect fill="#00000a" x="951.6" y="562.7" width="12.2" height="24.65" shape-rendering="crispEdges"/><rect fill="#00000a" x="963.8" y="562.7" width="12.2" height="24.65" shape-rendering="crispEdges"/>
    <g class="terminal-1474062533-matrix">
    <text class="terminal-1474062533-r2" x="24.4" y="20" textLength="280.6" clip-path="url(#terminal-1474062533-line-0)">Atomic&#160;Industries,&#160;Inc.</text><text class="terminal-1474062533-r4" x="329.4" y="20" textLength="97.6" clip-path="url(#terminal-1474062533-line-0)">ACC-0001</text><text class="terminal-1474062533-r5" x="451.4" y="20" textLength="12.2" clip-path="url(#terminal-1474062533-line-0)">·</text><text class="terminal-1474062533-r6" x="488" y="20" textLength="73.2" clip-path="url(#terminal-1474062533-line-0)">active</text><text class="terminal-1474062533-r5" x="585.6" y="20" textLength="12.2" clip-path="url(#terminal-1474062533-line-0)">·</text><text class="terminal-1474062533-r3" x="597.8" y="20" textLength="183" clip-path="url(#terminal-1474062533-line-0)">&#160;&#160;owner&#160;grant&#160;&#160;</text><text class="terminal-1474062533-r5" x="780.8" y="20" textLength="12.2" clip-path="url(#terminal-1474062533-line-0)">·</text><text class="terminal-1474062533-r3" x="793" y="20" textLength="122" clip-path="url(#terminal-1474062533-line-0)">&#160;&#160;renewal&#160;</text><text class="terminal-1474062533-r7" x="915" y="20" textLength="12.2" clip-path="url(#terminal-1474062533-line-0)">◆</text><text class="terminal-1474062533-r1" x="976" y="20" textLength="12.2" clip-path="url(#terminal-1474062533-line-0)">
</text><text class="terminal-1474062533-r8" x="0" y="44.4" textLength="24.4" clip-path="url(#terminal-1474062533-line-1)">ns</text><text class="terminal-1474062533-r8" x="48.8" y="44.4" textLength="146.4" clip-path="url(#terminal-1474062533-line-1)">4&#160;Placements</text><text class="terminal-1474062533-r8" x="219.6" y="44.4" textLength="122" clip-path="url(#terminal-1474062533-line-1)">5&#160;Projects</text><text class="terminal-1474062533-r8" x="366" y="44.4" textLength="122" clip-path="url(#terminal-1474062533-line-1)">6&#160;Pipeline</text><text class="terminal-1474062533-r8" x="512.4" y="44.4" textLength="134.2" clip-path="url(#terminal-1474062533-line-1)">7&#160;Documents</text><text class="terminal-1474062533-r8" x="671" y="44.4" textLength="146.4" clip-path="url(#terminal-1474062533-line-1)">8&#160;Open&#160;items</text><text class="terminal-1474062533-r3" x="841.8" y="44.4" textLength="122" clip-path="url(#terminal-1474062533-line-1)">9&#160;Requests</text><text class="terminal-1474062533-r1" x="976" y="44.4" textLength="12.2" clip-path="url(#terminal-1474062533-line-1)">
</text><text class="terminal-1474062533-r9" x="0" y="68.8" textLength="829.6" clip-path="url(#terminal-1474062533-line-2)">━━━━━━━━━━━━━━━━━━━━━━━━━━━━━━━━━━━━━━━━━━━━━━━━━━━━━━━━━━━━━━━━━━━━</text><text class="terminal-1474062533-r9" x="829.6" y="68.8" textLength="12.2" clip-path="url(#terminal-1474062533-line-2)">╸</text><text class="terminal-1474062533-r10" x="841.8" y="68.8" textLength="122" clip-path="url(#terminal-1474062533-line-2)">━━━━━━━━━━</text><text class="terminal-1474062533-r9" x="963.8" y="68.8" textLength="12.2" clip-path="url(#terminal-1474062533-line-2)">╺</text><text class="terminal-1474062533-r1" x="976" y="68.8" textLength="12.2" clip-path="url(#terminal-1474062533-line-2)">
</text><text class="terminal-1474062533-r11" x="0" y="93.2" textLength="61" clip-path="url(#terminal-1474062533-line-3)">&#160;ref&#160;</text><text class="terminal-1474062533-r11" x="61" y="93.2" textLength="109.8" clip-path="url(#terminal-1474062533-line-3)">&#160;request&#160;</text><text class="terminal-1474062533-r11" x="170.8" y="93.2" textLength="122" clip-path="url(#terminal-1474062533-line-3)">&#160;asked&#160;by&#160;</text><text class="terminal-1474062533-r11" x="292.8" y="93.2" textLength="85.4" clip-path="url(#terminal-1474062533-line-3)">&#160;scope&#160;</text><text class="terminal-1474062533-r11" x="378.2" y="93.2" textLength="85.4" clip-path="url(#terminal-1474062533-line-3)">&#160;asked&#160;</text><text class="terminal-1474062533-r11" x="463.6" y="93.2" textLength="61" clip-path="url(#terminal-1474062533-line-3)">&#160;due&#160;</text><text class="terminal-1474062533-r11" x="524.6" y="93.2" textLength="73.2" clip-path="url(#terminal-1474062533-line-3)">&#160;open&#160;</text><text class="terminal-1474062533-r1" x="976" y="93.2" textLength="12.2" clip-path="url(#terminal-1474062533-line-3)">
</text><text class="terminal-1474062533-r1" x="976" y="117.6" textLength="12.2" clip-path="url(#terminal-1474062533-line-4)">
</text><text class="terminal-1474062533-r1" x="976" y="142" textLength="12.2" clip-path="url(#terminal-1474062533-line-5)">
</text><text class="terminal-1474062533-r1" x="976" y="166.4" textLength="12.2" clip-path="url(#terminal-1474062533-line-6)">
</text><text class="terminal-1474062533-r1" x="976" y="190.8" textLength="12.2" clip-path="url(#terminal-1474062533-line-7)">
</text><text class="terminal-1474062533-r1" x="976" y="215.2" textLength="12.2" clip-path="url(#terminal-1474062533-line-8)">
</text><text class="terminal-1474062533-r1" x="976" y="239.6" textLength="12.2" clip-path="url(#terminal-1474062533-line-9)">
</text><text class="terminal-1474062533-r1" x="976" y="264" textLength="12.2" clip-path="url(#terminal-1474062533-line-10)">
</text><text class="terminal-1474062533-r11" x="0" y="288.4" textLength="231.8" clip-path="url(#terminal-1474062533-line-11)">no&#160;request&#160;selected</text><text class="terminal-1474062533-r1" x="976" y="288.4" textLength="12.2" clip-path="url(#terminal-1474062533-line-11)">
</text><text class="terminal-1474062533-r11" x="0" y="312.8" textLength="73.2" clip-path="url(#terminal-1474062533-line-12)">&#160;item&#160;</text><text class="terminal-1474062533-r11" x="73.2" y="312.8" textLength="73.2" clip-path="url(#terminal-1474062533-line-12)">&#160;type&#160;</text><text class="terminal-1474062533-r11" x="146.4" y="312.8" textLength="85.4" clip-path="url(#terminal-1474062533-line-12)">&#160;group&#160;</text><text class="terminal-1474062533-r11" x="231.8" y="312.8" textLength="134.2" clip-path="url(#terminal-1474062533-line-12)">&#160;needed&#160;by&#160;</text><text class="terminal-1474062533-r11" x="366" y="312.8" textLength="97.6" clip-path="url(#terminal-1474062533-line-12)">&#160;status&#160;</text><text class="terminal-1474062533-r11" x="463.6" y="312.8" textLength="122" clip-path="url(#terminal-1474062533-line-12)">&#160;received&#160;</text><text class="terminal-1474062533-r11" x="585.6" y="312.8" textLength="122" clip-path="url(#terminal-1474062533-line-12)">&#160;response&#160;</text><text class="terminal-1474062533-r1" x="976" y="312.8" textLength="12.2" clip-path="url(#terminal-1474062533-line-12)">
</text><text class="terminal-1474062533-r1" x="976" y="337.2" textLength="12.2" clip-path="url(#terminal-1474062533-line-13)">
</text><text class="terminal-1474062533-r1" x="976" y="361.6" textLength="12.2" clip-path="url(#terminal-1474062533-line-14)">
</text><text class="terminal-1474062533-r1" x="976" y="386" textLength="12.2" clip-path="url(#terminal-1474062533-line-15)">
</text><text class="terminal-1474062533-r1" x="976" y="410.4" textLength="12.2" clip-path="url(#terminal-1474062533-line-16)">
</text><text class="terminal-1474062533-r1" x="976" y="434.8" textLength="12.2" clip-path="url(#terminal-1474062533-line-17)">
</text><text class="terminal-1474062533-r1" x="976" y="459.2" textLength="12.2" clip-path="url(#terminal-1474062533-line-18)">
</text><text class="terminal-1474062533-r1" x="976" y="483.6" textLength="12.2" clip-path="url(#terminal-1474062533-line-19)">
</text><text class="terminal-1474062533-r1" x="976" y="508" textLength="12.2" clip-path="url(#terminal-1474062533-line-20)">
</text><text class="terminal-1474062533-r1" x="976" y="532.4" textLength="12.2" clip-path="url(#terminal-1474062533-line-21)">
</text><text class="terminal-1474062533-r4" x="24.4" y="556.8" textLength="97.6" clip-path="url(#terminal-1474062533-line-22)">empty&#160;—&#160;</text><text class="terminal-1474062533-r12" x="122" y="556.8" textLength="12.2" clip-path="url(#terminal-1474062533-line-22)">a</text><text class="terminal-1474062533-r4" x="134.2" y="556.8" textLength="231.8" clip-path="url(#terminal-1474062533-line-22)">&#160;adds&#160;the&#160;first&#160;row</text><text class="terminal-1474062533-r1" x="976" y="556.8" textLength="12.2" clip-path="url(#terminal-1474062533-line-22)">
</text><text class="terminal-1474062533-r14" x="390.4" y="581.2" textLength="12.2" clip-path="url(#terminal-1474062533-line-23)">▎</text>
    </g>
    </g>
</svg>
